<?xml version="1.0" standalone="no"?>
<!DOCTYPE svg PUBLIC "-//W3C//DTD SVG 20010904//EN"
 "http://www.w3.org/TR/2001/REC-SVG-20010904/DTD/svg10.dtd">
<svg version="1.0" xmlns="http://www.w3.org/2000/svg"
 width="128.000000pt" height="128.000000pt" viewBox="0 0 128.000000 128.000000"
 preserveAspectRatio="xMidYMid meet">
<metadata>
Created by potrace 1.16, written by Peter Selinger 2001-2019
</metadata>
<g transform="translate(0.000000,128.000000) scale(0.100000,-0.100000)"
fill="#000000" stroke="none">
<path d="M86 1256 c-21 -13 -49 -41 -62 -62 -22 -36 -24 -49 -24 -187 0 -160
5 -180 57 -229 43 -41 74 -48 219 -48 148 0 181 8 226 56 41 45 48 75 48 219
0 144 -7 175 -48 218 -49 52 -69 57 -229 57 -138 0 -151 -2 -187 -24z m338
-102 c25 -26 26 -30 26 -149 0 -119 -1 -123 -26 -149 -26 -25 -30 -26 -149
-26 -119 0 -123 1 -149 26 -25 26 -26 30 -26 151 0 118 1 125 25 148 23 24 30
25 148 25 121 0 125 -1 151 -26z"/>
<path d="M825 1261 c-40 -24 -71 -60 -84 -94 -14 -37 -14 -287 0 -324 14 -38
57 -83 96 -99 39 -17 287 -19 330 -3 34 13 80 55 99 91 10 20 14 67 14 174 0
133 -2 150 -22 186 -13 22 -41 51 -64 64 -38 22 -50 24 -190 24 -128 0 -153
-3 -179 -19z m330 -106 c24 -23 25 -30 25 -148 0 -121 -1 -125 -26 -151 -26
-25 -30 -26 -149 -26 -119 0 -123 1 -149 26 -25 26 -26 30 -26 149 0 119 1
123 26 149 26 25 30 26 151 26 118 0 125 -1 148 -25z"/>
<path d="M110 539 c-32 -13 -78 -56 -96 -91 -10 -20 -14 -67 -14 -174 0 -137
2 -150 24 -188 13 -23 42 -51 64 -64 36 -20 53 -22 186 -22 159 0 179 5 228
57 41 43 48 74 48 218 0 74 -5 146 -11 162 -14 38 -57 83 -96 99 -38 17 -293
19 -333 3z m314 -115 c25 -26 26 -30 26 -149 0 -119 -1 -123 -26 -149 -26 -25
-30 -26 -151 -26 -118 0 -125 1 -148 25 -24 23 -25 30 -25 148 0 121 1 125 26
151 26 25 30 26 149 26 119 0 123 -1 149 -26z"/>
<path d="M835 536 c-37 -17 -80 -62 -94 -99 -6 -16 -11 -88 -11 -162 0 -144 7
-175 48 -218 49 -52 69 -57 228 -57 137 0 150 2 188 24 23 13 51 42 64 64 20
36 22 53 22 186 0 107 -4 154 -14 174 -19 36 -65 78 -99 91 -42 16 -295 13
-332 -3z m319 -112 c25 -26 26 -30 26 -151 0 -118 -1 -125 -25 -148 -23 -24
-30 -25 -148 -25 -121 0 -125 1 -151 26 -25 26 -26 30 -26 149 0 119 1 123 26
149 26 25 30 26 149 26 119 0 123 -1 149 -26z"/>
</g>
</svg>
