<svg version="1.0" xmlns="http://www.w3.org/2000/svg" width="170.667" height="170.667" viewBox="0 0 128 128"><path d="M8.6 2.4C6.5 3.7 3.7 6.5 2.4 8.6.2 12.2 0 13.5 0 27.3c0 16 .5 18 5.7 22.9C10 54.3 13.1 55 27.6 55c14.8 0 18.1-.8 22.6-5.6 4.1-4.5 4.8-7.5 4.8-21.9 0-14.4-.7-17.5-4.8-21.8C45.3.5 43.3 0 27.3 0 13.5 0 12.2.2 8.6 2.4zm33.8 10.2c2.5 2.6 2.6 3 2.6 14.9s-.1 12.3-2.6 14.9c-2.6 2.5-3 2.6-14.9 2.6s-12.3-.1-14.9-2.6c-2.5-2.6-2.6-3-2.6-15.1 0-11.8.1-12.5 2.5-14.8 2.3-2.4 3-2.5 14.8-2.5 12.1 0 12.5.1 15.1 2.6zM82.5 1.9c-4 2.4-7.1 6-8.4 9.4-1.4 3.7-1.4 28.7 0 32.4 1.4 3.8 5.7 8.3 9.6 9.9 3.9 1.7 28.7 1.9 33 .3 3.4-1.3 8-5.5 9.9-9.1 1-2 1.4-6.7 1.4-17.4 0-13.3-.2-15-2.2-18.6-1.3-2.2-4.1-5.1-6.4-6.4-3.8-2.2-5-2.4-19-2.4-12.8 0-15.3.3-17.9 1.9zm33 10.6c2.4 2.3 2.5 3 2.5 14.8 0 12.1-.1 12.5-2.6 15.1-2.6 2.5-3 2.6-14.9 2.6s-12.3-.1-14.9-2.6c-2.5-2.6-2.6-3-2.6-14.9s.1-12.3 2.6-14.9c2.6-2.5 3-2.6 15.1-2.6 11.8 0 12.5.1 14.8 2.5zM11 74.1c-3.2 1.3-7.8 5.6-9.6 9.1-1 2-1.4 6.7-1.4 17.4 0 13.7.2 15 2.4 18.8 1.3 2.3 4.2 5.1 6.4 6.4 3.6 2 5.3 2.2 18.6 2.2 15.9 0 17.9-.5 22.8-5.7 4.1-4.3 4.8-7.4 4.8-21.8 0-7.4-.5-14.6-1.1-16.2-1.4-3.8-5.7-8.3-9.6-9.9-3.8-1.7-29.3-1.9-33.3-.3zm31.4 11.5c2.5 2.6 2.6 3 2.6 14.9s-.1 12.3-2.6 14.9c-2.6 2.5-3 2.6-15.1 2.6-11.8 0-12.5-.1-14.8-2.5-2.4-2.3-2.5-3-2.5-14.8 0-12.1.1-12.5 2.6-15.1 2.6-2.5 3-2.6 14.9-2.6s12.3.1 14.9 2.6zm41.1-11.2c-3.7 1.7-8 6.2-9.4 9.9-.6 1.6-1.1 8.8-1.1 16.2 0 14.4.7 17.5 4.8 21.8 4.9 5.2 6.9 5.7 22.8 5.7 13.7 0 15-.2 18.8-2.4 2.3-1.3 5.1-4.2 6.4-6.4 2-3.6 2.2-5.3 2.2-18.6 0-10.7-.4-15.4-1.4-17.4-1.9-3.6-6.5-7.8-9.9-9.1-4.2-1.6-29.5-1.3-33.2.3zm31.9 11.2c2.5 2.6 2.6 3 2.6 15.1 0 11.8-.1 12.5-2.5 14.8-2.3 2.4-3 2.5-14.8 2.5-12.1 0-12.5-.1-15.1-2.6-2.5-2.6-2.6-3-2.6-14.9s.1-12.3 2.6-14.9c2.6-2.5 3-2.6 14.9-2.6s12.3.1 14.9 2.6z"/></svg>