<svg xmlns="http://www.w3.org/2000/svg" viewBox="0 0 512 512" style="enable-background:new 0 0 512 512" xml:space="preserve"><path d="M109.7 36.6H36.6v73.1h73.1V36.6zm36.6 438.8v-73.1c0-20.2-16.4-36.6-36.6-36.6H36.6C16.4 365.7 0 382.1 0 402.3v73.1C0 495.6 16.4 512 36.6 512h73.1c20.2 0 36.6-16.4 36.6-36.6zm0-182.8v-73.1c0-20.2-16.4-36.6-36.6-36.6H36.6C16.4 182.9 0 199.2 0 219.4v73.1c0 20.2 16.4 36.6 36.6 36.6h73.1c20.2 0 36.6-16.3 36.6-36.5zm0-182.9V36.6c0-20.2-16.4-36.6-36.6-36.6H36.6C16.4 0 0 16.4 0 36.6v73.1c0 20.2 16.4 36.6 36.6 36.6h73.1c20.2 0 36.6-16.4 36.6-36.6zm182.8 365.7v-73.1c0-20.2-16.4-36.6-36.6-36.6h-73.1c-20.2 0-36.6 16.4-36.6 36.6v73.1c0 20.2 16.4 36.6 36.6 36.6h73.1c20.3 0 36.6-16.4 36.6-36.6zm0-182.8v-73.1c0-20.2-16.4-36.6-36.6-36.6h-73.1c-20.2 0-36.6 16.4-36.6 36.6v73.1c0 20.2 16.4 36.6 36.6 36.6h73.1c20.3-.1 36.6-16.4 36.6-36.6zm0-182.9V36.6c0-20.2-16.4-36.6-36.6-36.6h-73.1c-20.2 0-36.6 16.4-36.6 36.6v73.1c0 20.2 16.4 36.6 36.6 36.6h73.1c20.3 0 36.6-16.4 36.6-36.6zm-36.5-73.1h-73.1v73.1h73.1V36.6zm182.8 0h-73.1v73.1h73.1V36.6zM109.7 219.4H36.6v73.1h73.1v-73.1zm182.9 0h-73.1v73.1h73.1v-73.1zm182.8 0h-73.1v73.1h73.1v-73.1zM109.7 402.3H36.6v73.1h73.1v-73.1zm182.9 0h-73.1v73.1h73.1v-73.1zm182.8 0h-73.1v73.1h73.1v-73.1zM402.3 0c-20.2 0-36.6 16.4-36.6 36.6v73.1c0 20.2 16.4 36.6 36.6 36.6h73.1c20.2 0 36.6-16.4 36.6-36.6V36.6C512 16.4 495.6 0 475.4 0h-73.1zm-36.6 219.4c0-20.2 16.4-36.6 36.6-36.6h73.1c20.2 0 36.6 16.4 36.6 36.6v73.1c0 20.2-16.4 36.6-36.6 36.6h-73.1c-20.2 0-36.6-16.4-36.6-36.6v-73.1zm36.6 146.3c-20.2 0-36.6 16.4-36.6 36.6v73.1c0 20.2 16.4 36.6 36.6 36.6h73.1c20.2 0 36.6-16.4 36.6-36.6v-73.1c0-20.2-16.4-36.6-36.6-36.6h-73.1z" style="fill-rule:evenodd;clip-rule:evenodd"/></svg>